<svg width="14" height="10" viewBox="0 0 14 10" fill="none" xmlns="http://www.w3.org/2000/svg">
<path fill-rule="evenodd" clip-rule="evenodd" d="M0 1.875C0 0.839469 0.854732 0 1.90909 0H12.0909C13.1453 0 14 0.839469 14 1.875V3.125V8.125C14 9.16056 13.1453 10 12.0909 10H1.90909C0.854732 10 0 9.16056 0 8.125V3.125V1.875ZM1.90909 1.25C1.55764 1.25 1.27273 1.52982 1.27273 1.875V2.5H12.7273V1.875C12.7273 1.52982 12.4424 1.25 12.0909 1.25H1.90909ZM12.7273 3.75H1.27273V8.125C1.27273 8.47019 1.55764 8.75 1.90909 8.75H12.0909C12.4424 8.75 12.7273 8.47019 12.7273 8.125V3.75ZM7.63636 6.875C7.63636 6.52981 7.92126 6.25 8.27273 6.25H10.8182C11.1696 6.25 11.4545 6.52981 11.4545 6.875C11.4545 7.22019 11.1696 7.5 10.8182 7.5H8.27273C7.92126 7.5 7.63636 7.22019 7.63636 6.875Z" fill="white"/>
</svg>
