<svg width="11" height="15" viewBox="0 0 11 15" fill="none" xmlns="http://www.w3.org/2000/svg">
<path fill-rule="evenodd" clip-rule="evenodd" d="M8.88432 3.90696C9.78263 5.14387 10.8007 6.54565 10.9687 8.78229C10.9687 8.78229 11 9.21896 11 9.37491C11 12.4707 8.54124 14.9906 5.5161 14.9995H5.51223C5.50865 15.0004 5.50418 14.9998 5.5 14.9995C2.46741 14.9995 0 12.4762 0 9.37491C0 9.26841 0.000286459 9.16189 0.0065599 9.05569C0.0960781 5.86347 1.63462 5.06396 1.69996 5.03162C1.78799 4.98706 1.89005 4.99043 1.97688 5.0368C2.06282 5.0838 2.12188 5.16984 2.13592 5.26872C2.1389 5.28949 2.42117 7.19578 3.66727 7.46797C3.67234 6.6471 3.70846 5.40421 3.98148 4.29864C4.37476 2.71063 5.5006 1.04631 6.84994 0.0588262C6.94272 -0.0101386 7.06535 -0.0189862 7.16742 0.0350372C7.26917 0.0887383 7.33333 0.195848 7.33333 0.313035C7.33333 1.77181 8.05171 2.76077 8.88354 3.90589L8.88379 3.90624L8.88432 3.90696ZM3.66667 12.3773C3.66667 13.4786 4.48903 14.3746 5.5 14.3746C6.51097 14.3746 7.33333 13.4786 7.33339 12.3773C7.33339 12.3194 7.3295 12.2655 7.32564 12.2118L7.32563 12.2116C7.26146 11.3056 6.89594 10.7743 6.54234 10.2605C6.29527 9.90128 6.04221 9.53329 5.91241 9.0786C5.62057 9.4289 5.39023 9.86589 5.29384 10.2766C5.18553 10.7399 5.17656 11.2532 5.17656 11.6981C5.17656 11.8708 5.03989 12.0105 4.87099 12.0105C4.35626 12.0105 4.03938 11.6526 3.86212 11.2632C3.76753 11.4741 3.68128 11.7911 3.66904 12.2556C3.66662 12.2979 3.66664 12.3331 3.66666 12.3674L3.66667 12.3773Z" fill="white"/>
</svg>
