<svg width="15" height="14" viewBox="0 0 15 14" fill="none" xmlns="http://www.w3.org/2000/svg">
<path d="M1.13603 11.9498C0.745511 12.3403 0.745511 12.9735 1.13603 13.364C1.52656 13.7545 2.15972 13.7545 2.55025 13.364L1.13603 11.9498ZM13.864 2.05027C14.2545 1.65974 14.2545 1.02658 13.864 0.636053C13.4734 0.245529 12.8403 0.245529 12.4497 0.636053L13.864 2.05027ZM0.843141 12.6569C0.843141 13.2092 1.29086 13.6569 1.84314 13.6569C2.39543 13.6569 2.84314 13.2092 2.84314 12.6569L0.843141 12.6569ZM2.84314 7.70712C2.84314 7.15484 2.39543 6.70712 1.84314 6.70712C1.29086 6.70712 0.843142 7.15484 0.843142 7.70712L2.84314 7.70712ZM1.84314 11.6569C1.29086 11.6569 0.843142 12.1046 0.843141 12.6569C0.843141 13.2092 1.29086 13.6569 1.84314 13.6569L1.84314 11.6569ZM6.79289 13.6569C7.34517 13.6569 7.79289 13.2092 7.79289 12.6569C7.79289 12.1046 7.34517 11.6569 6.79289 11.6569V13.6569ZM13.1568 2.34316C13.7091 2.34316 14.1568 1.89544 14.1568 1.34316C14.1568 0.790875 13.7091 0.34316 13.1568 0.34316L13.1568 2.34316ZM8.2071 0.34316C7.65482 0.34316 7.2071 0.790875 7.2071 1.34316C7.2071 1.89544 7.65482 2.34316 8.2071 2.34316L8.2071 0.34316ZM14.1568 1.34316C14.1568 0.790875 13.7091 0.34316 13.1568 0.34316C12.6046 0.34316 12.1569 0.790875 12.1569 1.34316L14.1568 1.34316ZM12.1569 6.29291C12.1568 6.84519 12.6046 7.29291 13.1569 7.29291C13.7091 7.29291 14.1569 6.84519 14.1568 6.29291L12.1569 6.29291ZM2.55025 13.364L13.864 2.05027L12.4497 0.636053L1.13603 11.9498L2.55025 13.364ZM2.84314 12.6569L2.84314 7.70712L0.843142 7.70712L0.843141 12.6569L2.84314 12.6569ZM1.84314 13.6569L6.79289 13.6569V11.6569L1.84314 11.6569L1.84314 13.6569ZM13.1568 0.34316H8.2071L8.2071 2.34316H13.1568L13.1568 0.34316ZM12.1569 1.34316L12.1569 6.29291L14.1568 6.29291L14.1568 1.34316L12.1569 1.34316Z" fill="#3ED598"/>
</svg>
