<svg width="12" height="15" viewBox="0 0 12 15" fill="none" xmlns="http://www.w3.org/2000/svg">
<path fill-rule="evenodd" clip-rule="evenodd" d="M6.48189 14.8304C7.90654 13.7014 12 10.0935 12 5.90959C12 2.64582 9.31371 0 6 0C2.68629 0 0 2.64582 0 5.90959C0 10.0935 4.09343 13.7014 5.51811 14.8304C5.80346 15.0565 6.19654 15.0565 6.48189 14.8304ZM6 8.44227C7.4202 8.44227 8.57143 7.30839 8.57143 5.90959C8.57143 4.51083 7.4202 3.37691 6 3.37691C4.5798 3.37691 3.42857 4.51083 3.42857 5.90959C3.42857 7.30839 4.5798 8.44227 6 8.44227Z" fill="white"/>
</svg>
