<svg data-name="Layer 1" version="1.1" viewBox="0 0 13.5 13.5" xmlns="http://www.w3.org/2000/svg">
 <title>settings</title>
 <path transform="translate(-.25 -.25)" d="M4.93,13.75a2.08,2.08,0,0,1-2-2.61.57.57,0,0,0-.11-.52.45.45,0,0,0-.44-.21A2,2,0,0,1,.31,8.81,2.07,2.07,0,0,1,1.47,6.43.55.55,0,0,0,1.79,6a.6.6,0,0,0-.12-.52,2.07,2.07,0,0,1,0-2.66,2,2,0,0,1,2.54-.52.53.53,0,0,0,.48,0A.57.57,0,0,0,5,1.93H5a2.05,2.05,0,0,1,4,0,.57.57,0,0,0,.31.42.53.53,0,0,0,.48,0,2,2,0,0,1,2.54.52,2.07,2.07,0,0,1,0,2.66.6.6,0,0,0-.12.52.55.55,0,0,0,.32.39,2.07,2.07,0,0,1,1.16,2.38,2,2,0,0,1-2.06,1.6.45.45,0,0,0-.44.21.57.57,0,0,0-.11.52A2.07,2.07,0,0,1,10,13.55a2,2,0,0,1-2.52-.65A.54.54,0,0,0,7,12.67a.57.57,0,0,0-.44.23A2,2,0,0,1,4.93,13.75ZM2.39,8.91A2,2,0,0,1,4,9.68a2.09,2.09,0,0,1,.4,1.83.55.55,0,0,0,.3.68A.5.5,0,0,0,5.35,12,2,2,0,0,1,7,11.17H7A2,2,0,0,1,8.65,12a.52.52,0,0,0,.67.17.55.55,0,0,0,.3-.68A2.09,2.09,0,0,1,10,9.68a2.13,2.13,0,0,1,1.66-.77.52.52,0,0,0,.55-.44.56.56,0,0,0-.32-.67,2.1,2.1,0,0,1-.73-3.24.58.58,0,0,0,0-.76.52.52,0,0,0-.68-.14,2,2,0,0,1-1.83,0A2.08,2.08,0,0,1,7.54,2.22a.55.55,0,0,0-1.08,0h0A2.08,2.08,0,0,1,5.32,3.7a2,2,0,0,1-1.83,0,.52.52,0,0,0-.68.14.58.58,0,0,0,0,.76A2.1,2.1,0,0,1,2.09,7.8a.56.56,0,0,0-.32.67.51.51,0,0,0,.55.44Z"/>
 <path transform="translate(-.25 -.25)" d="M7,9.75A2.75,2.75,0,1,1,9.75,7,2.75,2.75,0,0,1,7,9.75Zm0-4A1.25,1.25,0,1,0,8.25,7,1.25,1.25,0,0,0,7,5.75Z"/>
</svg>
