<svg data-name="Layer 1" version="1.1" viewBox="0 0 18 17" xmlns="http://www.w3.org/2000/svg">
 <title>star-hollow2</title>
 <path transform="translate(0)" d="M4.55,17a1.8,1.8,0,0,1-1.07-.35,1.76,1.76,0,0,1-.68-1.83l.88-3.91L.62,8.26a1.78,1.78,0,0,1,1-3.12l4.09-.38L7.35,1.07a1.81,1.81,0,0,1,3.3,0l1.63,3.69,4.09.38a1.77,1.77,0,0,1,1,3.12l-3.06,2.65.89,3.91a1.78,1.78,0,0,1-.69,1.83,1.82,1.82,0,0,1-2,.1L9,14.7,5.46,16.75A1.79,1.79,0,0,1,4.55,17ZM2.32,7.08,5.09,9.49a1.75,1.75,0,0,1,.57,1.73l-.81,3.57,3.24-1.87a1.8,1.8,0,0,1,1.82,0l3.24,1.87-.82-3.57a1.77,1.77,0,0,1,.58-1.73l2.77-2.41L12,6.74A1.8,1.8,0,0,1,10.5,5.68L9,2.29,7.5,5.68A1.8,1.8,0,0,1,6,6.74Z"/>
</svg>
