<svg width="14" height="20" viewBox="0 0 14 20" fill="none" xmlns="http://www.w3.org/2000/svg">
<path fill-rule="evenodd" clip-rule="evenodd" d="M3.70711 5.70711C3.31658 6.09763 2.68342 6.09763 2.29289 5.70711C1.90237 5.31658 1.90237 4.68342 2.29289 4.29289L6.2929 0.29289C6.6834 -0.09763 7.3166 -0.09763 7.7071 0.29289L11.7071 4.29289C12.0976 4.68342 12.0976 5.31658 11.7071 5.70711C11.3166 6.09763 10.6834 6.09763 10.2929 5.70711L8 3.41421V8H6V3.41421L3.70711 5.70711ZM6 8H3C1.34315 8 0 9.3431 0 11V17C0 18.6569 1.34315 20 3 20H11C12.6569 20 14 18.6569 14 17V11C14 9.3431 12.6569 8 11 8H8V13C8 13.5523 7.5523 14 7 14C6.4477 14 6 13.5523 6 13V8Z" fill="#FF565E"/>
</svg>
